<svg width="1024" height="1024" viewBox="0 0 1024 1024" xmlns="http://www.w3.org/2000/svg" role="img" aria-label="Warm character composition walking">
  <defs>
    <linearGradient id="bg" x1="0" y1="0" x2="1" y2="1">
      <stop offset="0%" stop-color="#FBF6EE"/>
      <stop offset="100%" stop-color="#F3E3CD"/>
    </linearGradient>
  </defs>

  <rect width="1024" height="1024" fill="url(#bg)"/>
  <path d="M100 772c136-58 248-78 356-68 134 12 244 58 392 132" fill="none" stroke="#7FB3A8" stroke-width="36" stroke-linecap="round" opacity="0.18"/>
  <circle cx="814" cy="226" r="78" fill="#F5B97A"/>
  <circle cx="814" cy="226" r="32" fill="#FAF3E8" opacity="0.3"/>
  <rect x="126" y="204" width="90" height="90" rx="30" fill="#E3B24B"/>
  <rect x="126" y="204" width="46" height="46" rx="18" fill="#FAF3E8" opacity="0.42"/>

  <g transform="translate(520 532)">
    <circle cx="0" cy="-240" r="96" fill="#F0B58B"/>
    <circle cx="-30" cy="-254" r="11" fill="#5E6F78"/>
    <circle cx="30" cy="-254" r="11" fill="#5E6F78"/>
    <path d="M-34 -220c20 14 68 14 88 0" fill="none" stroke="#5E6F78" stroke-width="10" stroke-linecap="round"/>
    <path d="M-88 -152c-46 20-82 66-98 118-18 60-10 124 22 174h164c-10-62-10-114-2-168 10-66 34-104 66-124" fill="#F29D7E"/>
    <path d="M84 -152c58 18 98 60 116 118 18 58 12 122-18 174H26c10-60 10-114 0-168-10-66-34-104-66-124" fill="#7CB4AC"/>
    <path d="M-74 -28l-120 116" fill="none" stroke="#5E6F78" stroke-width="20" stroke-linecap="round"/>
    <path d="M74 -28l130 104" fill="none" stroke="#5E6F78" stroke-width="20" stroke-linecap="round"/>
    <path d="M-28 132l-58 166" fill="none" stroke="#5E6F78" stroke-width="20" stroke-linecap="round"/>
    <path d="M30 132l54 170" fill="none" stroke="#5E6F78" stroke-width="20" stroke-linecap="round"/>
    <circle cx="-198" cy="78" r="24" fill="#F7D36B"/>
    <circle cx="196" cy="-6" r="20" fill="#F7D36B"/>
    <circle cx="184" cy="-18" r="8" fill="#FAF3E8"/>
    <circle cx="-176" cy="60" r="8" fill="#FAF3E8"/>
    <ellipse cx="0" cy="320" rx="178" ry="42" fill="#D99C5E"/>
  </g>

  <circle cx="212" cy="742" r="14" fill="#5E6F78"/>
  <circle cx="244" cy="718" r="8" fill="#5E6F78"/>
  <circle cx="840" cy="690" r="10" fill="#5E6F78"/>
</svg>
