<svg width="1024" height="1024" viewBox="0 0 1024 1024" xmlns="http://www.w3.org/2000/svg" role="img" aria-label="Friendly arch pattern">
  <defs>
    <linearGradient id="bg2" x1="0" y1="0" x2="1" y2="1">
      <stop offset="0%" stop-color="#F7F0E6"/>
      <stop offset="100%" stop-color="#F1E2CC"/>
    </linearGradient>
    <pattern id="tile2" width="256" height="256" patternUnits="userSpaceOnUse">
      <rect width="256" height="256" fill="url(#bg2)"/>
      <path d="M40 212c0-50 40-90 90-90s90 40 90 90" fill="none" stroke="#6B8F8A" stroke-width="22" stroke-linecap="round"/>
      <path d="M54 212c0-38 31-69 69-69s69 31 69 69" fill="none" stroke="#F29D7E" stroke-width="16" stroke-linecap="round"/>
      <rect x="160" y="54" width="56" height="56" rx="24" fill="#E0A84C"/>
      <rect x="78" y="54" width="36" height="36" rx="18" fill="#7BB7B1"/>
      <circle cx="212" cy="168" r="22" fill="#F2C66D"/>
      <circle cx="204" cy="160" r="8" fill="#FAF3E8"/>
      <circle cx="26" cy="34" r="7" fill="#5E6F78"/>
      <circle cx="46" cy="26" r="4" fill="#5E6F78"/>
      <circle cx="226" cy="236" r="6" fill="#5E6F78"/>
      <rect x="0" y="0" width="256" height="12" fill="#D99C5E" opacity="0.18"/>
      <rect x="0" y="244" width="256" height="12" fill="#6B8F8A" opacity="0.14"/>
    </pattern>
  </defs>
  <rect width="1024" height="1024" fill="url(#tile2)"/>
</svg>
